<?xml version="1.0" encoding="utf-8"?>
<!DOCTYPE svg PUBLIC "-//W3C//DTD SVG 1.1//EN" "http://www.w3.org/Graphics/SVG/1.1/DTD/svg11.dtd">
<svg version="1.1" xmlns="http://www.w3.org/2000/svg" xmlns:xlink="http://www.w3.org/1999/xlink" x="0" y="0" width="260px" height="32px" viewBox="0 0 260 32" xml:space="preserve">
    <desc>Northwestern Mutual Logo</desc>
    <g>
        <path fill="#ffb81c" d="M9.2,14.5c2.7,0,5,4.3,5.4,11.1l0.1,0c0.4-1.4,0.5-2.8,0.5-4.2c0-4.9-2.3-9.3-5.4-9.3c-2.9,0-3.2,2.4-2.5,3.5 C7.6,15.2,8.1,14.5,9.2,14.5 M12.2,26.7c0.1-0.6,0.2-1.1,0.2-2c0-3.1-1.9-8.1-5.4-8.1c-2.7,0-3.1,2.6-2.2,3.4 c0.2-0.6,0.8-1.3,1.9-1.3C9.6,18.7,11.7,23.2,12.2,26.7L12.2,26.7z M29.9,15.6c0.3-0.4,0.4-0.9,0.4-1.2c0-1.2-1.1-2.3-2.7-2.3 c-4.7,0-6.4,8.2-5.1,13.5h0.1c0.5-7.2,2.8-11.1,5.4-11.1C29.3,14.4,29.8,15.3,29.9,15.6 M30.1,16.7c-4.4,0-6.1,7.5-5.2,10H25 c0.5-3.8,2.6-8,5.3-8c1.5,0,1.9,0.9,1.9,1.3C33.2,19.1,32.6,16.7,30.1,16.7 M19.4,29.3c-2.7,0-5.4,0.6-7.7,2.1l0,0.1 c1.1-0.2,3.8-0.5,7.1-0.5c3.6,0,4.9,0.5,5.5,0.5c0.4,0,0.6-0.2,0.6-0.6C24.9,29.7,22.3,29.3,19.4,29.3 M19.4,26.5 c-2.3,0-5.4,0.6-7.7,2.1l0,0.1c0.9-0.1,3.9-0.5,7.2-0.5c3.1,0,4.9,0.5,5.4,0.5c0.4,0,0.6-0.2,0.6-0.6 C24.9,26.9,22.3,26.5,19.4,26.5 M29.9,8.6c-0.3,0.1-0.8,0.6-0.8,1.3c0,0.9,0.6,2.6,3.1,2.6c2.6,0,4.3-1.9,4.3-4.5 c0-2.6-1.9-4.9-6-4.9c-4.9,0-11.2,4.4-11.2,15c0,2,0.2,4.2,0.7,6.6h0.1c0-13,4.9-19.2,10.2-19.2c2.3,0,3.5,1.4,3.5,2.9 c0,1.4-0.8,2.4-2.1,2.4C30.2,10.8,29.7,9.5,29.9,8.6 M7,10.2C6.8,10.5,6.2,11,5.2,11C4,11,3,10,3,8.6C3,7.3,4.1,6,6.1,6 c5,0,10.9,7.2,10.9,16.3c0,0.6,0,1.6-0.1,2.4l0.1,0c0.5-1.6,1-4,1-5.7c0-8-5.5-15.7-11.9-15.7c-3.8,0-5.7,2.5-5.7,4.8 c0,2.5,1.5,4.4,3.8,4.4C6,12.5,7,11.2,7,10.2 M6.3,0.6c-0.5,0-0.8,0.3-0.8,0.6c0,0.5,0.3,0.7,0.9,0.9c1.8,0.7,5.2,1.2,9,1.2 c6.8,0,13.8-1,16.8-2.2l0-0.1c-2.5,0.2-6.8,0.5-13.7,0.5C9.1,1.5,7.2,0.6,6.3,0.6 M11.7,4.2L11.7,4.2c0.8,0.4,4.5,2,6.2,8.2 c0.1,0.4,0.3,0.5,0.5,0.5c0.4,0,0.6-0.3,0.6-0.8c0-2.9-1.6-5.4-2.9-6.5C14.6,4.4,12.8,4.1,11.7,4.2 M20.9,5.1 c1.2-1.2,2.9-1.7,4.7-1.5l0,0.1c-0.6,0.2-2,0.7-3.5,2.2c-1.2,1.3-2,2.8-2.4,4.1C19.3,7.4,20.1,5.9,20.9,5.1"></path><polygon fill="#002b49" points="43.8,15.5 41.8,15.5 41.8,14.1 46.4,14.1 46.4,15.5 54.5,24.3 54.5,15.5 52.5,15.5 52.5,14.1 58.1,14.1 58.1,15.5 56.1,15.5 56.1,28.4 54.6,28.4 45.4,18.4 45.4,27.1 47.3,27.1 47.3,28.4 41.8,28.4 41.8,27.1 43.8,27.1"></polygon><path fill="#002b49" d="M58.4,23.3c0,2.2,1.5,5.4,5.7,5.4c4,0,5.7-2.8,5.7-5.4c0-2.7-1.9-5.4-5.7-5.4C60.1,17.9,58.4,20.9,58.4,23.3 M61.5,23.3c0-2.4,0.8-4.2,2.7-4.2c1.7,0,2.6,1.6,2.6,4.4c0,2.6-1,4.2-2.6,4.2C62.5,27.6,61.5,26,61.5,23.3"></path><path fill="#002b49" d="M72.5,19.3h-1.8v-1.1h4.5v1.7h0c0.4-0.6,0.8-1.1,1.2-1.5c0.4-0.3,0.8-0.5,1.3-0.5c0.5,0,1.2,0.4,1.6,1 c-0.1,0.9-0.5,2.1-1,2.9c-0.6-1.1-1-1.5-1.7-1.5c-0.6,0-0.9,0.3-1.5,1v6H77v1.1h-6.3v-1.1h1.8V19.3z"></path><path fill="#002b49" d="M80.1,19.6l4.3-4.1v2.8h2.9v1.3h-2.9v5.8c0,1.3,0.5,2.2,1.4,2.2c0.8,0,1.3-0.8,1.7-0.8c0.2,0,0.3,0.1,0.3,0.3 c0,0.5-0.9,1.6-3,1.6c-2.1,0-3.1-1.1-3.1-3.4v-5.7H80.1z"></path><path fill="#002b49" d="M93.2,19.4c1.3-0.9,2.6-1.5,3.6-1.5c1.6,0,2.8,1.3,2.8,3v6.4h1.8v1.1h-6v-1.1h1.5v-5.8c0-1.2-0.6-1.8-1.6-1.8 c-0.6,0-1.3,0.3-2.2,0.8v6.8h1.5v1.1h-6v-1.1h1.8V13.8h-1.8v-1.1h4.6V19.4z"></path><polygon fill="#002b49" points="100.7,19.3 100.7,18.2 106.3,18.2 106.3,19.3 104.9,19.3 107.2,24.4 109.1,19.3 107.7,19.3 107.7,18.2 112.9,18.2 112.9,19.3 111.6,19.3 113.9,24.4 115.8,19.3 114.2,19.3 114.2,18.2 118.4,18.2 118.4,19.3 117,19.3 113.5,28.6 112.9,28.6 109.5,21.4 106.8,28.6 106.3,28.6 102,19.3"></polygon><path fill="#002b49" d="M128.1,22.7c-0.3-2.9-2.1-4.7-4.7-4.7c-2.8,0-4.7,2.1-4.7,5.2c0,2.4,1.3,5.6,5.5,5.6c1.5,0,2.5-0.3,3.9-1.1 l0.2-1.3c-0.8,0.6-2.2,1.1-3.2,1.1c-2,0-3.4-1.9-3.4-4.7H128.1z M121.7,21.6c0-1.3,0.6-2.5,1.7-2.5c1,0,1.7,0.9,1.9,2.5H121.7z"></path><path fill="#002b49" d="M129.9,25.4h0.7c0.4,1.4,1.4,2.2,2.5,2.2c0.8,0,1.4-0.4,1.4-1.2c0-1.7-4.7-2.1-4.7-5.3c0-1.8,1.5-3.1,3.5-3.1 c0.7,0,1.3,0.2,2,0.6l0.2-0.5h0.8v2.7h-0.8c-0.4-1.2-0.9-1.7-1.9-1.7c-0.9,0-1.4,0.4-1.4,1c0,2.1,4.8,2,4.8,5.5 c0,1.9-1.5,3.2-3.6,3.2c-0.9,0-1.7-0.2-2.5-0.6l-0.1,0.5h-0.8V25.4z"></path><path fill="#002b49" d="M137.7,19.6l4.3-4.1v2.8h2.9v1.3H142v5.8c0,1.3,0.5,2.2,1.4,2.2c0.8,0,1.3-0.8,1.7-0.8c0.2,0,0.3,0.1,0.3,0.3 c0,0.5-0.9,1.6-3,1.6c-2.1,0-3.1-1.1-3.1-3.4v-5.7H137.7z"></path><path fill="#002b49" d="M155.1,22.7c-0.3-2.9-2.1-4.7-4.7-4.7c-2.8,0-4.7,2.1-4.7,5.2c0,2.4,1.3,5.6,5.5,5.6c1.5,0,2.5-0.3,3.8-1.1 l0.2-1.3c-0.8,0.6-2.2,1.1-3.3,1.1c-2,0-3.4-1.9-3.4-4.7H155.1z M148.7,21.6c0-1.3,0.6-2.5,1.7-2.5c1,0,1.7,0.9,1.9,2.5H148.7z"></path><path fill="#002b49" d="M158.2,19.3h-1.8v-1.1h4.5v1.7h0c0.4-0.6,0.8-1.1,1.3-1.5c0.4-0.3,0.8-0.5,1.3-0.5c0.5,0,1.2,0.4,1.6,1 c-0.1,0.9-0.5,2.1-1,2.9c-0.6-1.1-1-1.5-1.7-1.5c-0.6,0-0.9,0.3-1.5,1v6h1.8v1.1h-6.3v-1.1h1.8V19.3z"></path><path fill="#002b49" d="M168,19.3h-1.8v-1.1h4.5v1.2c1.4-0.9,2.3-1.5,3.6-1.5c1.8,0,2.8,1.2,2.8,3.1v6.3h1.8v1.1h-6v-1.1h1.5v-6.1 c0-1-0.7-1.6-1.5-1.6c-0.7,0-1.3,0.2-2.2,0.8v6.9h1.4v1.1h-6v-1.1h1.8V19.3z"></path><polygon fill="#002b49" points="187,15.5 185.1,15.5 185.1,14.1 190.3,14.1 190.3,15.5 194.4,23.9 198.4,15.5 198.4,14.1 203.8,14.1 203.8,15.5 201.9,15.5 201.9,27.1 203.8,27.1 203.8,28.4 197,28.4 197,27.1 199,27.1 199,18.1 198.9,18.1 194,28.4 193.5,28.4 188.7,18.5 188.7,18.5 188.7,27.1 190.6,27.1 190.6,28.4 185.1,28.4 185.1,27.1 187,27.1 	"></polygon><path fill="#002b49" d="M216.8,27.3v1.1h-4.5v-1c-1.3,0.9-2.5,1.3-3.5,1.3c-2.2,0-2.9-1.4-2.9-2.9v-6.5H204v-1.1h4.5v7.4 c0,1,0.5,1.6,1.4,1.6c0.6,0,1.3-0.3,2.3-0.9v-7.1h-1.8v-1.1h4.5v9.1H216.8z"></path><path fill="#002b49" d="M217,19.6l4.3-4.1v2.8h2.9v1.3h-2.9v5.8c0,1.3,0.5,2.2,1.4,2.2c0.8,0,1.3-0.8,1.7-0.8c0.2,0,0.3,0.1,0.3,0.3 c0,0.5-0.9,1.6-3,1.6c-2.1,0-3.1-1.1-3.1-3.4v-5.7H217z"></path><path fill="#002b49" d="M237.8,27.3v1.1h-4.5v-1c-1.3,0.9-2.5,1.3-3.5,1.3c-2.2,0-2.9-1.4-2.9-2.9v-6.5h-1.8v-1.1h4.5v7.4 c0,1,0.5,1.6,1.4,1.6c0.6,0,1.3-0.3,2.3-0.9v-7.1h-1.8v-1.1h4.5v9.1H237.8z"></path><path fill="#002b49" d="M248.4,27c-0.3,0.1-0.5,0.2-0.8,0.2c-0.6,0-1.2-0.5-1.2-1.3v-4.5c0-2-1.5-3.4-3.4-3.4c-1.3,0-2.9,0.7-4.1,1.8 l0.2,0.8c1.2-0.7,2.1-1,2.8-1c1.1,0,1.8,0.7,1.8,2v1.2l-2.5,0.6c-1.9,0.5-2.7,1.3-2.7,2.6c0,1.6,1,2.8,2.4,2.8c0.9,0,1.8-0.4,3-1.3 c0.3,0.8,1.1,1.3,2.1,1.3c0.8,0,1.6-0.2,2.4-0.7V27z M243.7,23.9v2.5c-0.5,0.4-1.1,0.7-1.5,0.7c-0.6,0-1.1-0.6-1.1-1.2 C241.1,24.8,241.6,24.3,243.7,23.9"></path><polygon fill="#002b49" points="250.9,13.8 249.2,13.8 249.2,12.7 253.7,12.7 253.7,27.3 255.4,27.3 255.4,28.4 249.2,28.4 249.2,27.3 250.9,27.3 	"></polygon><path fill="#002b49" d="M257.5,14.4h0.4c0.1,0,0.4,0,0.4-0.3c0-0.1-0.1-0.3-0.3-0.3h-0.5V14.4z M257.5,15.5h-0.4v-1.9h0.9 c0.1,0,0.7,0,0.7,0.6c0,0.4-0.3,0.5-0.4,0.5l0.4,0.8h-0.4l-0.3-0.8h-0.5V15.5z M257.9,16c0.8,0,1.5-0.7,1.5-1.5 c0-0.8-0.7-1.5-1.5-1.5c-0.8,0-1.5,0.7-1.5,1.5C256.4,15.4,257,16,257.9,16 M257.9,12.7c1,0,1.8,0.8,1.8,1.8c0,1-0.8,1.8-1.8,1.8 c-1,0-1.8-0.8-1.8-1.8C256.1,13.5,256.9,12.7,257.9,12.7"></path>
    </g>
</svg>
